<svg xmlns="http://www.w3.org/2000/svg" width="100" height="100">
    <style>
        #main {
            animation: swoop 1s linear infinite;
        }

        @keyframes swoop {
            from {
                transform: translate3d(-50%, 0, 0);
            }
            to {
                transform: translate3d(50%, 0, 0);
            }
        }
    </style>

    <g id="main">
        <g>
            <path d="M -100 60 L -99.75 60 L -99.5 60 L -99.25 60 L -99 60 L -98.75 60 L -98.5 60 L -98.25 60 L -98 60 L -97.75 60 L -97.5 60 L -97.25 59 L -97 59 L -96.75 59 L -96.5 59 L -96.25 59 L -96 59 L -95.75 59 L -95.5 58 L -95.25 58 L -95 58 L -94.75 58 L -94.5 58 L -94.25 58 L -94 57 L -93.75 57 L -93.5 57 L -93.25 57 L -93 56 L -92.75 56 L -92.5 56 L -92.25 56 L -92 55 L -91.75 55 L -91.5 55 L -91.25 55 L -91 54 L -90.75 54 L -90.5 54 L -90.25 53 L -90 53 L -89.75 53 L -89.5 52 L -89.25 52 L -89 52 L -88.75 52 L -88.5 51 L -88.25 51 L -88 51 L -87.75 50 L -87.5 50 L -87.25 50 L -87 49 L -86.75 49 L -86.5 49 L -86.25 48 L -86 48 L -85.75 48 L -85.5 48 L -85.25 47 L -85 47 L -84.75 47 L -84.5 46 L -84.25 46 L -84 46 L -83.75 45 L -83.5 45 L -83.25 45 L -83 45 L -82.75 44 L -82.5 44 L -82.25 44 L -82 44 L -81.75 43 L -81.5 43 L -81.25 43 L -81 43 L -80.75 42 L -80.5 42 L -80.25 42 L -80 42 L -79.75 42 L -79.5 42 L -79.25 41 L -79 41 L -78.75 41 L -78.5 41 L -78.25 41 L -78 41 L -77.75 41 L -77.5 40 L -77.25 40 L -77 40 L -76.75 40 L -76.5 40 L -76.25 40 L -76 40 L -75.75 40 L -75.5 40 L -75.25 40 L -75 40 L -74.75 40 L -74.5 40 L -74.25 40 L -74 40 L -73.75 40 L -73.5 40 L -73.25 40 L -73 40 L -72.75 40 L -72.5 40 L -72.25 41 L -72 41 L -71.75 41 L -71.5 41 L -71.25 41 L -71 41 L -70.75 41 L -70.5 42 L -70.25 42 L -70 42 L -69.75 42 L -69.5 42 L -69.25 42 L -69 43 L -68.75 43 L -68.5 43 L -68.25 43 L -68 44 L -67.75 44 L -67.5 44 L -67.25 44 L -67 45 L -66.75 45 L -66.5 45 L -66.25 45 L -66 46 L -65.75 46 L -65.5 46 L -65.25 47 L -65 47 L -64.75 47 L -64.5 48 L -64.25 48 L -64 48 L -63.75 48 L -63.5 49 L -63.25 49 L -63 49 L -62.75 50 L -62.5 50 L -62.25 50 L -62 51 L -61.75 51 L -61.5 51 L -61.25 52 L -61 52 L -60.75 52 L -60.5 52 L -60.25 53 L -60 53 L -59.75 53 L -59.5 54 L -59.25 54 L -59 54 L -58.75 55 L -58.5 55 L -58.25 55 L -58 55 L -57.75 56 L -57.5 56 L -57.25 56 L -57 56 L -56.75 57 L -56.5 57 L -56.25 57 L -56 57 L -55.75 58 L -55.5 58 L -55.25 58 L -55 58 L -54.75 58 L -54.5 58 L -54.25 59 L -54 59 L -53.75 59 L -53.5 59 L -53.25 59 L -53 59 L -52.75 59 L -52.5 60 L -52.25 60 L -52 60 L -51.75 60 L -51.5 60 L -51.25 60 L -51 60 L -50.75 60 L -50.5 60 L -50.25 60 L -50 60 L -49.75 60 L -49.5 60 L -49.25 60 L -49 60 L -48.75 60 L -48.5 60 L -48.25 60 L -48 60 L -47.75 60 L -47.5 60 L -47.25 59 L -47 59 L -46.75 59 L -46.5 59 L -46.25 59 L -46 59 L -45.75 59 L -45.5 58 L -45.25 58 L -45 58 L -44.75 58 L -44.5 58 L -44.25 58 L -44 57 L -43.75 57 L -43.5 57 L -43.25 57 L -43 56 L -42.75 56 L -42.5 56 L -42.25 56 L -42 55 L -41.75 55 L -41.5 55 L -41.25 55 L -41 54 L -40.75 54 L -40.5 54 L -40.25 53 L -40 53 L -39.75 53 L -39.5 52 L -39.25 52 L -39 52 L -38.75 52 L -38.5 51 L -38.25 51 L -38 51 L -37.75 50 L -37.5 50 L -37.25 50 L -37 49 L -36.75 49 L -36.5 49 L -36.25 48 L -36 48 L -35.75 48 L -35.5 48 L -35.25 47 L -35 47 L -34.75 47 L -34.5 46 L -34.25 46 L -34 46 L -33.75 45 L -33.5 45 L -33.25 45 L -33 45 L -32.75 44 L -32.5 44 L -32.25 44 L -32 44 L -31.75 43 L -31.5 43 L -31.25 43 L -31 43 L -30.75 42 L -30.5 42 L -30.25 42 L -30 42 L -29.75 42 L -29.5 42 L -29.25 41 L -29 41 L -28.75 41 L -28.5 41 L -28.25 41 L -28 41 L -27.75 41 L -27.5 40 L -27.25 40 L -27 40 L -26.75 40 L -26.5 40 L -26.25 40 L -26 40 L -25.75 40 L -25.5 40 L -25.25 40 L -25 40 L -24.75 40 L -24.5 40 L -24.25 40 L -24 40 L -23.75 40 L -23.5 40 L -23.25 40 L -23 40 L -22.75 40 L -22.5 40 L -22.25 41 L -22 41 L -21.75 41 L -21.5 41 L -21.25 41 L -21 41 L -20.75 41 L -20.5 42 L -20.25 42 L -20 42 L -19.75 42 L -19.5 42 L -19.25 42 L -19 43 L -18.75 43 L -18.5 43 L -18.25 43 L -18 44 L -17.75 44 L -17.5 44 L -17.25 44 L -17 45 L -16.75 45 L -16.5 45 L -16.25 45 L -16 46 L -15.75 46 L -15.5 46 L -15.25 47 L -15 47 L -14.75 47 L -14.5 48 L -14.25 48 L -14 48 L -13.75 48 L -13.5 49 L -13.25 49 L -13 49 L -12.75 50 L -12.5 50 L -12.25 50 L -12 51 L -11.75 51 L -11.5 51 L -11.25 52 L -11 52 L -10.75 52 L -10.5 52 L -10.25 53 L -10 53 L -9.75 53 L -9.5 54 L -9.25 54 L -9 54 L -8.75 55 L -8.5 55 L -8.25 55 L -8 55 L -7.75 56 L -7.5 56 L -7.25 56 L -7 56 L -6.75 57 L -6.5 57 L -6.25 57 L -6 57 L -5.75 58 L -5.5 58 L -5.25 58 L -5 58 L -4.75 58 L -4.5 58 L -4.25 59 L -4 59 L -3.75 59 L -3.5 59 L -3.25 59 L -3 59 L -2.75 59 L -2.5 60 L -2.25 60 L -2 60 L -1.75 60 L -1.5 60 L -1.25 60 L -1 60 L -0.75 60 L -0.5 60 L -0.25 60 L 0 60 L 0.25 60 L 0.5 60 L 0.75 60 L 1 60 L 1.25 60 L 1.5 60 L 1.75 60 L 2 60 L 2.25 60 L 2.5 60 L 2.75 59 L 3 59 L 3.25 59 L 3.5 59 L 3.75 59 L 4 59 L 4.25 59 L 4.5 58 L 4.75 58 L 5 58 L 5.25 58 L 5.5 58 L 5.75 58 L 6 57 L 6.25 57 L 6.5 57 L 6.75 57 L 7 56 L 7.25 56 L 7.5 56 L 7.75 56 L 8 55 L 8.25 55 L 8.5 55 L 8.75 55 L 9 54 L 9.25 54 L 9.5 54 L 9.75 53 L 10 53 L 10.25 53 L 10.5 52 L 10.75 52 L 11 52 L 11.25 52 L 11.5 51 L 11.75 51 L 12 51 L 12.25 50 L 12.5 50 L 12.75 50 L 13 49 L 13.25 49 L 13.5 49 L 13.75 48 L 14 48 L 14.25 48 L 14.5 48 L 14.75 47 L 15 47 L 15.25 47 L 15.5 46 L 15.75 46 L 16 46 L 16.25 45 L 16.5 45 L 16.75 45 L 17 45 L 17.25 44 L 17.5 44 L 17.75 44 L 18 44 L 18.25 43 L 18.5 43 L 18.75 43 L 19 43 L 19.25 42 L 19.5 42 L 19.75 42 L 20 42 L 20.25 42 L 20.5 42 L 20.75 41 L 21 41 L 21.25 41 L 21.5 41 L 21.75 41 L 22 41 L 22.25 41 L 22.5 40 L 22.75 40 L 23 40 L 23.25 40 L 23.5 40 L 23.75 40 L 24 40 L 24.25 40 L 24.5 40 L 24.75 40 L 25 40 L 25.25 40 L 25.5 40 L 25.75 40 L 26 40 L 26.25 40 L 26.5 40 L 26.75 40 L 27 40 L 27.25 40 L 27.5 40 L 27.75 41 L 28 41 L 28.25 41 L 28.5 41 L 28.75 41 L 29 41 L 29.25 41 L 29.5 42 L 29.75 42 L 30 42 L 30.25 42 L 30.5 42 L 30.75 42 L 31 43 L 31.25 43 L 31.5 43 L 31.75 43 L 32 44 L 32.25 44 L 32.5 44 L 32.75 44 L 33 45 L 33.25 45 L 33.5 45 L 33.75 45 L 34 46 L 34.25 46 L 34.5 46 L 34.75 47 L 35 47 L 35.25 47 L 35.5 48 L 35.75 48 L 36 48 L 36.25 48 L 36.5 49 L 36.75 49 L 37 49 L 37.25 50 L 37.5 50 L 37.75 50 L 38 51 L 38.25 51 L 38.5 51 L 38.75 52 L 39 52 L 39.25 52 L 39.5 52 L 39.75 53 L 40 53 L 40.25 53 L 40.5 54 L 40.75 54 L 41 54 L 41.25 55 L 41.5 55 L 41.75 55 L 42 55 L 42.25 56 L 42.5 56 L 42.75 56 L 43 56 L 43.25 57 L 43.5 57 L 43.75 57 L 44 57 L 44.25 58 L 44.5 58 L 44.75 58 L 45 58 L 45.25 58 L 45.5 58 L 45.75 59 L 46 59 L 46.25 59 L 46.5 59 L 46.75 59 L 47 59 L 47.25 59 L 47.5 60 L 47.75 60 L 48 60 L 48.25 60 L 48.5 60 L 48.75 60 L 49 60 L 49.25 60 L 49.5 60 L 49.75 60 L 50 60 L 50.25 60 L 50.5 60 L 50.75 60 L 51 60 L 51.25 60 L 51.5 60 L 51.75 60 L 52 60 L 52.25 60 L 52.5 60 L 52.75 59 L 53 59 L 53.25 59 L 53.5 59 L 53.75 59 L 54 59 L 54.25 59 L 54.5 58 L 54.75 58 L 55 58 L 55.25 58 L 55.5 58 L 55.75 58 L 56 57 L 56.25 57 L 56.5 57 L 56.75 57 L 57 56 L 57.25 56 L 57.5 56 L 57.75 56 L 58 55 L 58.25 55 L 58.5 55 L 58.75 55 L 59 54 L 59.25 54 L 59.5 54 L 59.75 53 L 60 53 L 60.25 53 L 60.5 52 L 60.75 52 L 61 52 L 61.25 52 L 61.5 51 L 61.75 51 L 62 51 L 62.25 50 L 62.5 50 L 62.75 50 L 63 49 L 63.25 49 L 63.5 49 L 63.75 48 L 64 48 L 64.25 48 L 64.5 48 L 64.75 47 L 65 47 L 65.25 47 L 65.5 46 L 65.75 46 L 66 46 L 66.25 45 L 66.5 45 L 66.75 45 L 67 45 L 67.25 44 L 67.5 44 L 67.75 44 L 68 44 L 68.25 43 L 68.5 43 L 68.75 43 L 69 43 L 69.25 42 L 69.5 42 L 69.75 42 L 70 42 L 70.25 42 L 70.5 42 L 70.75 41 L 71 41 L 71.25 41 L 71.5 41 L 71.75 41 L 72 41 L 72.25 41 L 72.5 40 L 72.75 40 L 73 40 L 73.25 40 L 73.5 40 L 73.75 40 L 74 40 L 74.25 40 L 74.5 40 L 74.75 40 L 75 40 L 75.25 40 L 75.5 40 L 75.75 40 L 76 40 L 76.25 40 L 76.5 40 L 76.75 40 L 77 40 L 77.25 40 L 77.5 40 L 77.75 41 L 78 41 L 78.25 41 L 78.5 41 L 78.75 41 L 79 41 L 79.25 41 L 79.5 42 L 79.75 42 L 80 42 L 80.25 42 L 80.5 42 L 80.75 42 L 81 43 L 81.25 43 L 81.5 43 L 81.75 43 L 82 44 L 82.25 44 L 82.5 44 L 82.75 44 L 83 45 L 83.25 45 L 83.5 45 L 83.75 45 L 84 46 L 84.25 46 L 84.5 46 L 84.75 47 L 85 47 L 85.25 47 L 85.5 48 L 85.75 48 L 86 48 L 86.25 48 L 86.5 49 L 86.75 49 L 87 49 L 87.25 50 L 87.5 50 L 87.75 50 L 88 51 L 88.25 51 L 88.5 51 L 88.75 52 L 89 52 L 89.25 52 L 89.5 52 L 89.75 53 L 90 53 L 90.25 53 L 90.5 54 L 90.75 54 L 91 54 L 91.25 55 L 91.5 55 L 91.75 55 L 92 55 L 92.25 56 L 92.5 56 L 92.75 56 L 93 56 L 93.25 57 L 93.5 57 L 93.75 57 L 94 57 L 94.25 58 L 94.5 58 L 94.75 58 L 95 58 L 95.25 58 L 95.5 58 L 95.75 59 L 96 59 L 96.25 59 L 96.5 59 L 96.75 59 L 97 59 L 97.25 59 L 97.5 60 L 97.75 60 L 98 60 L 98.25 60 L 98.5 60 L 98.75 60 L 99 60 L 99.25 60 L 99.5 60 L 99.75 60 L 100 60 L 100.25 60 L 100.5 60 L 100.75 60 L 101 60 L 101.25 60 L 101.5 60 L 101.75 60 L 102 60 L 102.25 60 L 102.5 60 L 102.75 59 L 103 59 L 103.25 59 L 103.5 59 L 103.75 59 L 104 59 L 104.25 59 L 104.5 58 L 104.75 58 L 105 58 L 105.25 58 L 105.5 58 L 105.75 58 L 106 57 L 106.25 57 L 106.5 57 L 106.75 57 L 107 56 L 107.25 56 L 107.5 56 L 107.75 56 L 108 55 L 108.25 55 L 108.5 55 L 108.75 55 L 109 54 L 109.25 54 L 109.5 54 L 109.75 53 L 110 53 L 110.25 53 L 110.5 52 L 110.75 52 L 111 52 L 111.25 52 L 111.5 51 L 111.75 51 L 112 51 L 112.25 50 L 112.5 50 L 112.75 50 L 113 49 L 113.25 49 L 113.5 49 L 113.75 48 L 114 48 L 114.25 48 L 114.5 48 L 114.75 47 L 115 47 L 115.25 47 L 115.5 46 L 115.75 46 L 116 46 L 116.25 45 L 116.5 45 L 116.75 45 L 117 45 L 117.25 44 L 117.5 44 L 117.75 44 L 118 44 L 118.25 43 L 118.5 43 L 118.75 43 L 119 43 L 119.25 42 L 119.5 42 L 119.75 42 L 120 42 L 120.25 42 L 120.5 42 L 120.75 41 L 121 41 L 121.25 41 L 121.5 41 L 121.75 41 L 122 41 L 122.25 41 L 122.5 40 L 122.75 40 L 123 40 L 123.25 40 L 123.5 40 L 123.75 40 L 124 40 L 124.25 40 L 124.5 40 L 124.75 40 L 125 40 L 125.25 40 L 125.5 40 L 125.75 40 L 126 40 L 126.25 40 L 126.5 40 L 126.75 40 L 127 40 L 127.25 40 L 127.5 40 L 127.75 41 L 128 41 L 128.25 41 L 128.5 41 L 128.75 41 L 129 41 L 129.25 41 L 129.5 42 L 129.75 42 L 130 42 L 130.25 42 L 130.5 42 L 130.75 42 L 131 43 L 131.25 43 L 131.5 43 L 131.75 43 L 132 44 L 132.25 44 L 132.5 44 L 132.75 44 L 133 45 L 133.25 45 L 133.5 45 L 133.75 45 L 134 46 L 134.25 46 L 134.5 46 L 134.75 47 L 135 47 L 135.25 47 L 135.5 48 L 135.75 48 L 136 48 L 136.25 48 L 136.5 49 L 136.75 49 L 137 49 L 137.25 50 L 137.5 50 L 137.75 50 L 138 51 L 138.25 51 L 138.5 51 L 138.75 52 L 139 52 L 139.25 52 L 139.5 52 L 139.75 53 L 140 53 L 140.25 53 L 140.5 54 L 140.75 54 L 141 54 L 141.25 55 L 141.5 55 L 141.75 55 L 142 55 L 142.25 56 L 142.5 56 L 142.75 56 L 143 56 L 143.25 57 L 143.5 57 L 143.75 57 L 144 57 L 144.25 58 L 144.5 58 L 144.75 58 L 145 58 L 145.25 58 L 145.5 58 L 145.75 59 L 146 59 L 146.25 59 L 146.5 59 L 146.75 59 L 147 59 L 147.25 59 L 147.5 60 L 147.75 60 L 148 60 L 148.25 60 L 148.5 60 L 148.75 60 L 149 60 L 149.25 60 L 149.5 60 L 149.75 60 L 150 60 L 150.25 60 L 150.5 60 L 150.75 60 L 151 60 L 151.25 60 L 151.5 60 L 151.75 60 L 152 60 L 152.25 60 L 152.5 60 L 152.75 59 L 153 59 L 153.25 59 L 153.5 59 L 153.75 59 L 154 59 L 154.25 59 L 154.5 58 L 154.75 58 L 155 58 L 155.25 58 L 155.5 58 L 155.75 58 L 156 57 L 156.25 57 L 156.5 57 L 156.75 57 L 157 56 L 157.25 56 L 157.5 56 L 157.75 56 L 158 55 L 158.25 55 L 158.5 55 L 158.75 55 L 159 54 L 159.25 54 L 159.5 54 L 159.75 53 L 160 53 L 160.25 53 L 160.5 52 L 160.75 52 L 161 52 L 161.25 52 L 161.5 51 L 161.75 51 L 162 51 L 162.25 50 L 162.5 50 L 162.75 50 L 163 49 L 163.25 49 L 163.5 49 L 163.75 48 L 164 48 L 164.25 48 L 164.5 48 L 164.75 47 L 165 47 L 165.25 47 L 165.5 46 L 165.75 46 L 166 46 L 166.25 45 L 166.5 45 L 166.75 45 L 167 45 L 167.25 44 L 167.5 44 L 167.75 44 L 168 44 L 168.25 43 L 168.5 43 L 168.75 43 L 169 43 L 169.25 42 L 169.5 42 L 169.75 42 L 170 42 L 170.25 42 L 170.5 42 L 170.75 41 L 171 41 L 171.25 41 L 171.5 41 L 171.75 41 L 172 41 L 172.25 41 L 172.5 40 L 172.75 40 L 173 40 L 173.25 40 L 173.5 40 L 173.75 40 L 174 40 L 174.25 40 L 174.5 40 L 174.75 40 L 175 40 L 175.25 40 L 175.5 40 L 175.75 40 L 176 40 L 176.25 40 L 176.5 40 L 176.75 40 L 177 40 L 177.25 40 L 177.5 40 L 177.75 41 L 178 41 L 178.25 41 L 178.5 41 L 178.75 41 L 179 41 L 179.25 41 L 179.5 42 L 179.75 42 L 180 42 L 180.25 42 L 180.5 42 L 180.75 42 L 181 43 L 181.25 43 L 181.5 43 L 181.75 43 L 182 44 L 182.25 44 L 182.5 44 L 182.75 44 L 183 45 L 183.25 45 L 183.5 45 L 183.75 45 L 184 46 L 184.25 46 L 184.5 46 L 184.75 47 L 185 47 L 185.25 47 L 185.5 48 L 185.75 48 L 186 48 L 186.25 48 L 186.5 49 L 186.75 49 L 187 49 L 187.25 50 L 187.5 50 L 187.75 50 L 188 51 L 188.25 51 L 188.5 51 L 188.75 52 L 189 52 L 189.25 52 L 189.5 52 L 189.75 53 L 190 53 L 190.25 53 L 190.5 54 L 190.75 54 L 191 54 L 191.25 55 L 191.5 55 L 191.75 55 L 192 55 L 192.25 56 L 192.5 56 L 192.75 56 L 193 56 L 193.25 57 L 193.5 57 L 193.75 57 L 194 57 L 194.25 58 L 194.5 58 L 194.75 58 L 195 58 L 195.25 58 L 195.5 58 L 195.75 59 L 196 59 L 196.25 59 L 196.5 59 L 196.75 59 L 197 59 L 197.25 59 L 197.5 60 L 197.75 60 L 198 60 L 198.25 60 L 198.5 60 L 198.75 60 L 199 60 L 199.25 60 L 199.5 60 L 199.75 60" fill="none" stroke="black" stroke-width="10" stroke-linejoin="round"/>
        </g>
    </g>
</svg>